<svg width="36" height="24" viewBox="0 0 36 24" fill="none" xmlns="http://www.w3.org/2000/svg">
<rect width="36" height="24" fill="#E5E5E5"/>
<g clip-path="url(#clip0_37_94)" filter="url(#filter0_d_37_94)">
<rect width="428" height="2231" transform="translate(-22 -28)" fill="white"/>
<rect width="428" height="80" transform="translate(-22 -28)" fill="white"/>
<g clip-path="url(#clip1_37_94)">
<path d="M8 24H44V20H8V24ZM8 14H44V10H8V14ZM8 0V4H44V0H8Z" fill="#002F52"/>
</g>
<rect width="80" height="80" transform="translate(-22 -28)" fill="url(#paint0_linear_37_94)"/>
<g clip-path="url(#clip2_37_94)">
<path d="M0 24H36V20H0V24ZM0 14H36V10H0V14ZM0 0V4H36V0H0Z" fill="white"/>
</g>
</g>
<defs>
<filter id="filter0_d_37_94" x="-86" y="-92" width="572" height="2375" filterUnits="userSpaceOnUse" color-interpolation-filters="sRGB">
<feFlood flood-opacity="0" result="BackgroundImageFix"/>
<feColorMatrix in="SourceAlpha" type="matrix" values="0 0 0 0 0 0 0 0 0 0 0 0 0 0 0 0 0 0 127 0" result="hardAlpha"/>
<feMorphology radius="8" operator="dilate" in="SourceAlpha" result="effect1_dropShadow_37_94"/>
<feOffset dx="8" dy="8"/>
<feGaussianBlur stdDeviation="32"/>
<feComposite in2="hardAlpha" operator="out"/>
<feColorMatrix type="matrix" values="0 0 0 0 0 0 0 0 0 0 0 0 0 0 0 0 0 0 0.25 0"/>
<feBlend mode="normal" in2="BackgroundImageFix" result="effect1_dropShadow_37_94"/>
<feBlend mode="normal" in="SourceGraphic" in2="effect1_dropShadow_37_94" result="shape"/>
</filter>
<linearGradient id="paint0_linear_37_94" x1="33.4259" y1="-9.60003" x2="149.059" y2="5.71112" gradientUnits="userSpaceOnUse">
<stop stop-color="#002F52"/>
<stop offset="1" stop-color="#326589"/>
</linearGradient>
<clipPath id="clip0_37_94">
<rect width="428" height="2231" fill="white" transform="translate(-22 -28)"/>
</clipPath>
<clipPath id="clip1_37_94">
<rect width="48" height="48" fill="white" transform="translate(2 -12)"/>
</clipPath>
<clipPath id="clip2_37_94">
<rect width="48" height="48" fill="white" transform="translate(-6 -12)"/>
</clipPath>
</defs>
</svg>
